<?xml version="1.0" standalone="no"?><!DOCTYPE svg PUBLIC "-//W3C//DTD SVG 1.1//EN" "http://www.w3.org/Graphics/SVG/1.1/DTD/svg11.dtd"><svg t="1774369019365" class="icon" viewBox="0 0 1024 1024" version="1.1" xmlns="http://www.w3.org/2000/svg" p-id="1725" xmlns:xlink="http://www.w3.org/1999/xlink" width="200" height="200"><path d="M775.707626 455.092694v-36.690264c0-115.800608-22.194852-166.059281-26.643645-174.958913-5.463789-10.887674-15.339536-18.826539-27.090776-21.773301-9.961695-2.433125-99.726427-23.58024-210.657713-23.58024a956.270504 956.270504 0 0 0-210.738546 23.60275 41.495124 41.495124 0 0 0-27.003805 21.741583c-4.440608 8.97944-26.642622 60.792326-26.642621 197.303149v27.933877c0 11.101519 4.319872 21.530807 12.162558 29.368377 7.850871 7.850871 18.283229 12.173813 29.377585 12.173813 11.096403 0 21.528761-4.321918 29.376563-12.171766 7.731159-7.730136 12.165627-18.43466 12.165628-29.370424v-27.933877c0-69.877154 6.346795-113.60486 11.671431-137.984205l1.128569-5.166043 5.197762-0.974069c30.770136-5.766651 92.900783-15.438785 163.305899-15.438784a916.906667 916.906667 0 0 1 163.745867 15.487897l5.104652 0.951559 1.197123 5.05247c5.137394 21.670983 11.261135 59.341455 11.261135 115.73717v36.690264h83.082334z" fill="#161f7e" p-id="1726"></path><path d="M998.558593 1024.001023V645.757442c0-32.240448-8.21717-64.124828-23.761343-92.207066l-0.998625-1.803869V140.583086C973.797602 63.064812 910.730743 0 833.208377 0h-643.785771C111.904333 0 48.838497 63.064812 48.838497 140.583086V551.689209l-0.992486 1.799776c-15.549289 28.186603-23.767482 60.09247-23.767482 92.26948v378.242558h83.083357V875.432006h115.006619v49.527099h83.083358v-49.527099h412.133397v49.527099h83.083357v-49.527099h115.001503v148.569017h83.088473zM131.921855 140.583086c0-31.705324 25.794404-57.499728 57.500751-57.499729h643.785771c31.706347 0 57.500751 25.794404 57.500752 57.499729v333.549992l-11.00841-4.517347a187.55223 187.55223 0 0 0-25.263373-8.316418c-74.246139-18.410104-194.072966-40.364508-343.120831-40.364509-149.135859 0-268.919712 21.954404-343.144365 40.371671-7.920448 1.896978-16.162174 4.612502-25.25928 8.317442l-10.989992 4.475396v-333.516227z m-24.758945 651.765563v-146.591207c0-49.350088 33.30558-92.041311 80.992997-103.820176 69.897618-17.297906 182.704396-37.920128 323.160608-37.920128 140.116515 0 253.100304 20.593573 323.207674 37.868969 47.863405 11.904716 81.143405 54.650168 80.945931 103.95319v146.509352H107.16291z" fill="#161f7e" p-id="1727"></path></svg>